<svg width="200" height="47" viewBox="0 0 259 47" fill="none" xmlns="http://www.w3.org/2000/svg">
<path d="M26.8125 33.5312H31.2812V46H0.25V42.1562L5.6875 40.875V6.3125L0.25 5.03125V1.53125L17.8438 1.1875V5.03125L12.4062 6.3125V40.875H25.5312L26.8125 33.5312ZM52.0938 1.53125L58.5 1.1875L72.7188 40.9375L78.0312 42.1562V46H59.4688V42.1562L65.4062 40.9375L62.9688 33.8438H46.3438L43.8438 40.9375L49.8438 42.1562V46H32.25V42.1562L37.5 40.9375L52.0938 1.53125ZM54.7812 9.46875L48.0625 28.7188H61.25L54.7812 9.46875ZM88.1875 39.5938C88.3542 39.6771 88.7396 39.8542 89.3438 40.125C89.9479 40.375 90.7708 40.6146 91.8125 40.8438C92.8542 41.0729 93.9896 41.1875 95.2188 41.1875C97.7812 41.1875 100.052 40.5833 102.031 39.375C104.031 38.1667 105.031 36.4896 105.031 34.3438C105.031 32.9688 104.604 31.8229 103.75 30.9062C102.896 29.9688 101.833 29.2083 100.562 28.625C99.3125 28.0417 97.5833 27.3438 95.375 26.5312C92.4792 25.5104 90.1354 24.5521 88.3438 23.6562C86.5729 22.7604 85.0521 21.4688 83.7812 19.7812C82.5312 18.0938 81.9062 15.9271 81.9062 13.2812C81.9062 9.05208 83.3438 5.875 86.2188 3.75C89.1146 1.625 92.7396 0.5625 97.0938 0.5625C98.8854 0.5625 100.781 0.760417 102.781 1.15625C104.781 1.53125 106.49 1.92708 107.906 2.34375C109.323 2.73958 110.219 3 110.594 3.125L110.281 14H106.125L103.938 7.15625C103.771 7.11458 103.365 7 102.719 6.8125C102.073 6.60417 101.24 6.41667 100.219 6.25C99.1979 6.08333 98.1771 6 97.1562 6C94.4271 6 92.3229 6.61458 90.8438 7.84375C89.3646 9.05208 88.625 10.5104 88.625 12.2188C88.625 13.5938 89.0521 14.75 89.9062 15.6875C90.7604 16.6042 91.8229 17.3646 93.0938 17.9688C94.3854 18.5729 96.1875 19.2812 98.5 20.0938C101.271 21.0729 103.542 22 105.312 22.875C107.083 23.75 108.583 24.9896 109.812 26.5938C111.062 28.1771 111.688 30.1875 111.688 32.625C111.688 35.6875 110.938 38.2812 109.438 40.4062C107.938 42.5104 105.917 44.0729 103.375 45.0938C100.854 46.1146 98.0521 46.625 94.9688 46.625C92.9688 46.625 91 46.4375 89.0625 46.0625C87.125 45.6875 85.5104 45.3021 84.2188 44.9062C82.9479 44.4896 82.1354 44.2188 81.7812 44.0938V32.875H86.9062L88.1875 39.5938ZM123.812 42.1562L130.219 40.875V6.3125H121.906L120.312 12.7188H116.125V1.1875H151.031V12.7188H146.875L145.25 6.3125H136.938V40.875L143.344 42.1562V46H123.812V42.1562ZM155.844 42.1562C155.844 40.7604 156.25 39.6667 157.062 38.875C157.875 38.0833 158.854 37.6875 160 37.6875C161.271 37.6875 162.281 38.0833 163.031 38.875C163.781 39.6667 164.156 40.7604 164.156 42.1562C164.156 43.5312 163.76 44.625 162.969 45.4375C162.198 46.2292 161.208 46.625 160 46.625C158.729 46.625 157.719 46.2396 156.969 45.4688C156.219 44.6771 155.844 43.5729 155.844 42.1562ZM197.75 20.7188V25.8438H183.031V40.875L189.438 42.1562V46H170.875V42.1562L176.312 40.875V6.3125L170.875 5.03125V1.53125L183.031 1.1875H202.562V11.75H198.406L196.781 6.3125H183.031V20.7188H197.75ZM247.062 8.875L245.125 13.6875L235.219 33.8438L230.094 34.1562L220.188 13.375L218.562 8.875V40.875L224.656 42.1562V46H207.375V42.1562L212.812 40.875V6.3125L207.375 5.03125V1.53125L221.781 1.1875L233.344 26.8125L245.438 1.53125L258.906 1.1875V5.03125L253.438 6.3125V40.875L258.906 42.1562V46H240.969V42.1562L247.062 40.875V8.875Z" fill="#4772ff"/>
</svg>
